STARTFONT 2.1
FONT -Fondu-Espy Sans-Medium-R-Normal--14-130-75-75-P-81-MacRoman-1
SIZE 13 75 75
FONTBOUNDINGBOX 17 17 -1 -3
COMMENT Created by Fondu from a mac NFNT/FONT resource
STARTPROPERTIES 17
FOUNDRY "Fondu"
FAMILY_NAME "Espy Sans"
WEIGHT_NAME "Medium"
SLANT "R"
SETWIDTH_NAME "Normal"
ADD_STYLE_NAME ""
PIXEL_SIZE 14
POINT_SIZE 130
RESOLUTION_X 75
RESOLUTION_Y 75
SPACING "P"
AVERAGE_WIDTH 81
CHARSET_REGISTRY "MacRoman"
CHARSET_ENCODING "1"
FONT_ASCENT 14
FONT_DESCENT 3
FACE_NAME "Espy Sans 14"
ENDPROPERTIES
CHARS 224
STARTCHAR space
ENCODING 32
SWIDTH 285 0
DWIDTH 4 0
BBX 0 0 -1 -3
BITMAP
ENDCHAR
STARTCHAR exclam
ENCODING 33
SWIDTH 214 0
DWIDTH 3 0
BBX 1 11 1 0
BITMAP
80
80
80
80
80
80
80
80
00
80
80
ENDCHAR
STARTCHAR quotedbl
ENCODING 34
SWIDTH 357 0
DWIDTH 5 0
BBX 3 4 1 8
BITMAP
A0
A0
A0
A0
ENDCHAR
STARTCHAR numbersign
ENCODING 35
SWIDTH 785 0
DWIDTH 11 0
BBX 9 10 1 0
BITMAP
0900
0900
1200
7F80
1200
2400
FF00
2400
4800
4800
ENDCHAR
STARTCHAR dollar
ENCODING 36
SWIDTH 642 0
DWIDTH 9 0
BBX 7 13 1 -1
BITMAP
10
7E
90
90
90
70
1C
12
12
12
12
FC
10
ENDCHAR
STARTCHAR percent
ENCODING 37
SWIDTH 857 0
DWIDTH 12 0
BBX 10 11 1 0
BITMAP
6080
9080
9100
9200
6400
0400
0980
1240
2240
4240
4180
ENDCHAR
STARTCHAR ampersand
ENCODING 38
SWIDTH 785 0
DWIDTH 11 0
BBX 9 11 1 0
BITMAP
3800
4400
4400
4800
3000
3000
4880
8500
8200
8500
7880
ENDCHAR
STARTCHAR quotesingle
ENCODING 39
SWIDTH 214 0
DWIDTH 3 0
BBX 1 4 1 8
BITMAP
80
80
80
80
ENDCHAR
STARTCHAR parenleft
ENCODING 40
SWIDTH 357 0
DWIDTH 5 0
BBX 3 14 1 -2
BITMAP
20
40
40
80
80
80
80
80
80
80
80
40
40
20
ENDCHAR
STARTCHAR parenright
ENCODING 41
SWIDTH 357 0
DWIDTH 5 0
BBX 3 14 1 -2
BITMAP
80
40
40
20
20
20
20
20
20
20
20
40
40
80
ENDCHAR
STARTCHAR asterisk
ENCODING 42
SWIDTH 500 0
DWIDTH 7 0
BBX 5 5 1 6
BITMAP
50
20
F8
20
50
ENDCHAR
STARTCHAR plus
ENCODING 43
SWIDTH 642 0
DWIDTH 9 0
BBX 7 7 1 1
BITMAP
10
10
10
FE
10
10
10
ENDCHAR
STARTCHAR comma
ENCODING 44
SWIDTH 214 0
DWIDTH 3 0
BBX 2 3 0 -1
BITMAP
40
40
80
ENDCHAR
STARTCHAR hyphen
ENCODING 45
SWIDTH 500 0
DWIDTH 7 0
BBX 5 1 1 5
BITMAP
F8
ENDCHAR
STARTCHAR period
ENCODING 46
SWIDTH 214 0
DWIDTH 3 0
BBX 1 2 1 0
BITMAP
80
80
ENDCHAR
STARTCHAR slash
ENCODING 47
SWIDTH 428 0
DWIDTH 6 0
BBX 6 12 0 -1
BITMAP
04
04
08
08
10
10
20
20
40
40
80
80
ENDCHAR
STARTCHAR zero
ENCODING 48
SWIDTH 642 0
DWIDTH 9 0
BBX 7 11 1 0
BITMAP
38
44
82
82
82
82
82
82
82
44
38
ENDCHAR
STARTCHAR one
ENCODING 49
SWIDTH 642 0
DWIDTH 9 0
BBX 4 11 2 0
BITMAP
10
30
50
90
10
10
10
10
10
10
10
ENDCHAR
STARTCHAR two
ENCODING 50
SWIDTH 642 0
DWIDTH 9 0
BBX 7 11 1 0
BITMAP
78
84
02
02
04
08
10
20
40
80
FE
ENDCHAR
STARTCHAR three
ENCODING 51
SWIDTH 642 0
DWIDTH 9 0
BBX 7 11 1 0
BITMAP
78
84
02
02
04
38
04
02
02
84
78
ENDCHAR
STARTCHAR four
ENCODING 52
SWIDTH 642 0
DWIDTH 9 0
BBX 7 11 1 0
BITMAP
04
0C
14
24
44
84
FE
04
04
04
04
ENDCHAR
STARTCHAR five
ENCODING 53
SWIDTH 642 0
DWIDTH 9 0
BBX 7 11 1 0
BITMAP
FC
80
80
80
F8
04
02
02
02
84
78
ENDCHAR
STARTCHAR six
ENCODING 54
SWIDTH 642 0
DWIDTH 9 0
BBX 7 11 1 0
BITMAP
38
40
80
80
B8
C4
82
82
82
44
38
ENDCHAR
STARTCHAR seven
ENCODING 55
SWIDTH 642 0
DWIDTH 9 0
BBX 7 11 1 0
BITMAP
FE
02
02
04
08
08
08
10
10
10
10
ENDCHAR
STARTCHAR eight
ENCODING 56
SWIDTH 642 0
DWIDTH 9 0
BBX 7 11 1 0
BITMAP
38
44
82
82
44
38
44
82
82
44
38
ENDCHAR
STARTCHAR nine
ENCODING 57
SWIDTH 642 0
DWIDTH 9 0
BBX 7 11 1 0
BITMAP
38
44
82
82
82
46
3A
02
02
04
38
ENDCHAR
STARTCHAR colon
ENCODING 58
SWIDTH 214 0
DWIDTH 3 0
BBX 1 8 1 0
BITMAP
80
80
00
00
00
00
80
80
ENDCHAR
STARTCHAR semicolon
ENCODING 59
SWIDTH 214 0
DWIDTH 3 0
BBX 2 9 0 -1
BITMAP
40
40
00
00
00
00
40
40
80
ENDCHAR
STARTCHAR less
ENCODING 60
SWIDTH 642 0
DWIDTH 9 0
BBX 7 7 1 1
BITMAP
02
0C
30
C0
30
0C
02
ENDCHAR
STARTCHAR equal
ENCODING 61
SWIDTH 714 0
DWIDTH 10 0
BBX 8 4 1 2
BITMAP
FF
00
00
FF
ENDCHAR
STARTCHAR greater
ENCODING 62
SWIDTH 642 0
DWIDTH 9 0
BBX 7 7 1 1
BITMAP
80
60
18
06
18
60
80
ENDCHAR
STARTCHAR question
ENCODING 63
SWIDTH 500 0
DWIDTH 7 0
BBX 5 11 1 0
BITMAP
F0
08
08
08
10
20
40
40
00
40
40
ENDCHAR
STARTCHAR at
ENCODING 64
SWIDTH 785 0
DWIDTH 11 0
BBX 9 8 1 0
BITMAP
3E00
4100
9880
A480
A480
9B00
4000
3C00
ENDCHAR
STARTCHAR A
ENCODING 65
SWIDTH 642 0
DWIDTH 9 0
BBX 9 11 0 0
BITMAP
0800
0800
1400
1400
2200
2200
4100
7F00
4100
8080
8080
ENDCHAR
STARTCHAR B
ENCODING 66
SWIDTH 642 0
DWIDTH 9 0
BBX 7 11 1 0
BITMAP
F8
84
84
84
F8
84
82
82
82
84
F8
ENDCHAR
STARTCHAR C
ENCODING 67
SWIDTH 714 0
DWIDTH 10 0
BBX 8 11 1 0
BITMAP
1F
20
40
80
80
80
80
80
40
20
1F
ENDCHAR
STARTCHAR D
ENCODING 68
SWIDTH 714 0
DWIDTH 10 0
BBX 8 11 1 0
BITMAP
F8
84
82
81
81
81
81
81
82
84
F8
ENDCHAR
STARTCHAR E
ENCODING 69
SWIDTH 571 0
DWIDTH 8 0
BBX 6 11 1 0
BITMAP
FC
80
80
80
80
F8
80
80
80
80
FC
ENDCHAR
STARTCHAR F
ENCODING 70
SWIDTH 500 0
DWIDTH 7 0
BBX 6 11 1 0
BITMAP
FC
80
80
80
80
F0
80
80
80
80
80
ENDCHAR
STARTCHAR G
ENCODING 71
SWIDTH 785 0
DWIDTH 11 0
BBX 9 11 1 0
BITMAP
1F00
2000
4000
8000
8000
8780
8080
8080
4080
2100
1E00
ENDCHAR
STARTCHAR H
ENCODING 72
SWIDTH 714 0
DWIDTH 10 0
BBX 8 11 1 0
BITMAP
81
81
81
81
81
FF
81
81
81
81
81
ENDCHAR
STARTCHAR I
ENCODING 73
SWIDTH 214 0
DWIDTH 3 0
BBX 1 11 1 0
BITMAP
80
80
80
80
80
80
80
80
80
80
80
ENDCHAR
STARTCHAR J
ENCODING 74
SWIDTH 500 0
DWIDTH 7 0
BBX 5 11 1 0
BITMAP
08
08
08
08
08
08
08
08
08
08
F0
ENDCHAR
STARTCHAR K
ENCODING 75
SWIDTH 642 0
DWIDTH 9 0
BBX 8 11 1 0
BITMAP
82
84
88
90
A0
E0
90
88
84
82
81
ENDCHAR
STARTCHAR L
ENCODING 76
SWIDTH 571 0
DWIDTH 8 0
BBX 7 11 1 0
BITMAP
80
80
80
80
80
80
80
80
80
80
FE
ENDCHAR
STARTCHAR M
ENCODING 77
SWIDTH 928 0
DWIDTH 13 0
BBX 11 11 1 0
BITMAP
C060
C060
A0A0
A0A0
9120
9120
8A20
8A20
8420
8420
8420
ENDCHAR
STARTCHAR N
ENCODING 78
SWIDTH 714 0
DWIDTH 10 0
BBX 8 11 1 0
BITMAP
C1
C1
A1
A1
91
99
89
85
85
83
83
ENDCHAR
STARTCHAR O
ENCODING 79
SWIDTH 857 0
DWIDTH 12 0
BBX 10 11 1 0
BITMAP
1E00
2100
4080
8040
8040
8040
8040
8040
4080
2100
1E00
ENDCHAR
STARTCHAR P
ENCODING 80
SWIDTH 642 0
DWIDTH 9 0
BBX 7 11 1 0
BITMAP
F8
84
82
82
82
84
F8
80
80
80
80
ENDCHAR
STARTCHAR Q
ENCODING 81
SWIDTH 857 0
DWIDTH 12 0
BBX 10 13 1 -2
BITMAP
1E00
2100
4080
8040
8040
8040
8040
8040
4080
2100
1E00
0200
0180
ENDCHAR
STARTCHAR R
ENCODING 82
SWIDTH 642 0
DWIDTH 9 0
BBX 7 11 1 0
BITMAP
F8
84
82
82
82
84
F8
88
84
82
82
ENDCHAR
STARTCHAR S
ENCODING 83
SWIDTH 642 0
DWIDTH 9 0
BBX 7 11 1 0
BITMAP
3E
40
80
80
60
18
04
02
02
04
F8
ENDCHAR
STARTCHAR T
ENCODING 84
SWIDTH 642 0
DWIDTH 9 0
BBX 9 11 0 0
BITMAP
FF80
0800
0800
0800
0800
0800
0800
0800
0800
0800
0800
ENDCHAR
STARTCHAR U
ENCODING 85
SWIDTH 714 0
DWIDTH 10 0
BBX 8 11 1 0
BITMAP
81
81
81
81
81
81
81
81
81
42
3C
ENDCHAR
STARTCHAR V
ENCODING 86
SWIDTH 714 0
DWIDTH 10 0
BBX 9 11 1 0
BITMAP
8080
8080
8080
4100
4100
2200
2200
1400
1400
0800
0800
ENDCHAR
STARTCHAR W
ENCODING 87
SWIDTH 1000 0
DWIDTH 14 0
BBX 13 11 1 0
BITMAP
8208
8208
8208
4510
4510
4510
28A0
28A0
28A0
1040
1040
ENDCHAR
STARTCHAR X
ENCODING 88
SWIDTH 714 0
DWIDTH 10 0
BBX 8 11 1 0
BITMAP
81
81
42
24
24
18
24
24
42
81
81
ENDCHAR
STARTCHAR Y
ENCODING 89
SWIDTH 714 0
DWIDTH 10 0
BBX 9 11 1 0
BITMAP
8080
8080
4100
2200
2200
1400
0800
0800
0800
0800
0800
ENDCHAR
STARTCHAR Z
ENCODING 90
SWIDTH 642 0
DWIDTH 9 0
BBX 7 11 1 0
BITMAP
FE
02
04
08
08
10
20
20
40
80
FE
ENDCHAR
STARTCHAR bracketleft
ENCODING 91
SWIDTH 285 0
DWIDTH 4 0
BBX 2 14 1 -2
BITMAP
C0
80
80
80
80
80
80
80
80
80
80
80
80
C0
ENDCHAR
STARTCHAR backslash
ENCODING 92
SWIDTH 428 0
DWIDTH 6 0
BBX 6 12 0 -1
BITMAP
80
80
40
40
20
20
10
10
08
08
04
04
ENDCHAR
STARTCHAR bracketright
ENCODING 93
SWIDTH 285 0
DWIDTH 4 0
BBX 2 14 1 -2
BITMAP
C0
40
40
40
40
40
40
40
40
40
40
40
40
C0
ENDCHAR
STARTCHAR asciicircum
ENCODING 94
SWIDTH 500 0
DWIDTH 7 0
BBX 5 6 1 5
BITMAP
20
20
50
50
88
88
ENDCHAR
STARTCHAR underscore
ENCODING 95
SWIDTH 500 0
DWIDTH 7 0
BBX 7 1 0 -1
BITMAP
FE
ENDCHAR
STARTCHAR grave
ENCODING 96
SWIDTH 357 0
DWIDTH 5 0
BBX 3 2 1 10
BITMAP
C0
20
ENDCHAR
STARTCHAR a
ENCODING 97
SWIDTH 571 0
DWIDTH 8 0
BBX 6 8 1 0
BITMAP
78
04
04
7C
84
84
8C
74
ENDCHAR
STARTCHAR b
ENCODING 98
SWIDTH 642 0
DWIDTH 9 0
BBX 7 11 1 0
BITMAP
80
80
80
BC
C2
82
82
82
82
84
F8
ENDCHAR
STARTCHAR c
ENCODING 99
SWIDTH 571 0
DWIDTH 8 0
BBX 6 8 1 0
BITMAP
3C
40
80
80
80
80
40
3C
ENDCHAR
STARTCHAR d
ENCODING 100
SWIDTH 642 0
DWIDTH 9 0
BBX 7 11 1 0
BITMAP
02
02
02
3E
42
82
82
82
82
86
7A
ENDCHAR
STARTCHAR e
ENCODING 101
SWIDTH 642 0
DWIDTH 9 0
BBX 7 8 1 0
BITMAP
3C
42
82
FE
80
80
40
3E
ENDCHAR
STARTCHAR f
ENCODING 102
SWIDTH 428 0
DWIDTH 6 0
BBX 5 11 1 0
BITMAP
38
40
40
F0
40
40
40
40
40
40
40
ENDCHAR
STARTCHAR g
ENCODING 103
SWIDTH 642 0
DWIDTH 9 0
BBX 7 11 1 -3
BITMAP
3E
42
82
82
82
82
86
7A
02
04
78
ENDCHAR
STARTCHAR h
ENCODING 104
SWIDTH 571 0
DWIDTH 8 0
BBX 6 11 1 0
BITMAP
80
80
80
B8
C4
84
84
84
84
84
84
ENDCHAR
STARTCHAR i
ENCODING 105
SWIDTH 214 0
DWIDTH 3 0
BBX 1 10 1 0
BITMAP
80
00
80
80
80
80
80
80
80
80
ENDCHAR
STARTCHAR j
ENCODING 106
SWIDTH 214 0
DWIDTH 3 0
BBX 3 13 -1 -3
BITMAP
20
00
20
20
20
20
20
20
20
20
20
20
C0
ENDCHAR
STARTCHAR k
ENCODING 107
SWIDTH 571 0
DWIDTH 8 0
BBX 7 11 1 0
BITMAP
80
80
80
8C
90
A0
E0
90
88
84
82
ENDCHAR
STARTCHAR l
ENCODING 108
SWIDTH 214 0
DWIDTH 3 0
BBX 1 11 1 0
BITMAP
80
80
80
80
80
80
80
80
80
80
80
ENDCHAR
STARTCHAR m
ENCODING 109
SWIDTH 928 0
DWIDTH 13 0
BBX 11 8 1 0
BITMAP
B9C0
C620
8420
8420
8420
8420
8420
8420
ENDCHAR
STARTCHAR n
ENCODING 110
SWIDTH 571 0
DWIDTH 8 0
BBX 6 8 1 0
BITMAP
B8
C4
84
84
84
84
84
84
ENDCHAR
STARTCHAR o
ENCODING 111
SWIDTH 642 0
DWIDTH 9 0
BBX 7 8 1 0
BITMAP
38
44
82
82
82
82
44
38
ENDCHAR
STARTCHAR p
ENCODING 112
SWIDTH 642 0
DWIDTH 9 0
BBX 7 11 1 -3
BITMAP
B8
C4
82
82
82
82
84
F8
80
80
80
ENDCHAR
STARTCHAR q
ENCODING 113
SWIDTH 642 0
DWIDTH 9 0
BBX 7 11 1 -3
BITMAP
3E
42
82
82
82
82
46
3A
02
02
02
ENDCHAR
STARTCHAR r
ENCODING 114
SWIDTH 428 0
DWIDTH 6 0
BBX 5 8 1 0
BITMAP
B8
C0
80
80
80
80
80
80
ENDCHAR
STARTCHAR s
ENCODING 115
SWIDTH 571 0
DWIDTH 8 0
BBX 6 8 1 0
BITMAP
7C
80
80
60
18
04
04
F8
ENDCHAR
STARTCHAR t
ENCODING 116
SWIDTH 428 0
DWIDTH 6 0
BBX 5 10 1 0
BITMAP
40
40
F8
40
40
40
40
40
40
38
ENDCHAR
STARTCHAR u
ENCODING 117
SWIDTH 571 0
DWIDTH 8 0
BBX 6 8 1 0
BITMAP
84
84
84
84
84
84
8C
74
ENDCHAR
STARTCHAR v
ENCODING 118
SWIDTH 571 0
DWIDTH 8 0
BBX 7 8 1 0
BITMAP
82
82
44
44
28
28
10
10
ENDCHAR
STARTCHAR w
ENCODING 119
SWIDTH 857 0
DWIDTH 12 0
BBX 11 8 1 0
BITMAP
8420
8420
8A20
4A40
5140
5140
2080
2080
ENDCHAR
STARTCHAR x
ENCODING 120
SWIDTH 571 0
DWIDTH 8 0
BBX 7 8 1 0
BITMAP
82
44
28
10
28
44
82
82
ENDCHAR
STARTCHAR y
ENCODING 121
SWIDTH 571 0
DWIDTH 8 0
BBX 8 11 0 -3
BITMAP
41
41
22
22
14
14
08
08
10
20
C0
ENDCHAR
STARTCHAR z
ENCODING 122
SWIDTH 571 0
DWIDTH 8 0
BBX 6 8 1 0
BITMAP
FC
04
08
10
20
40
80
FC
ENDCHAR
STARTCHAR braceleft
ENCODING 123
SWIDTH 357 0
DWIDTH 5 0
BBX 3 14 1 -2
BITMAP
20
40
40
40
40
40
80
40
40
40
40
40
40
20
ENDCHAR
STARTCHAR bar
ENCODING 124
SWIDTH 357 0
DWIDTH 5 0
BBX 1 14 2 -2
BITMAP
80
80
80
80
80
80
80
80
80
80
80
80
80
80
ENDCHAR
STARTCHAR braceright
ENCODING 125
SWIDTH 357 0
DWIDTH 5 0
BBX 3 14 1 -2
BITMAP
80
40
40
40
40
40
20
40
40
40
40
40
40
80
ENDCHAR
STARTCHAR asciitilde
ENCODING 126
SWIDTH 642 0
DWIDTH 9 0
BBX 7 3 1 5
BITMAP
62
92
8C
ENDCHAR
STARTCHAR char007f
ENCODING 127
SWIDTH 0 0
DWIDTH 0 0
BBX 0 0 -1 -3
BITMAP
ENDCHAR
STARTCHAR Adieresis
ENCODING 128
SWIDTH 642 0
DWIDTH 9 0
BBX 9 13 0 0
BITMAP
1200
0000
0800
0800
1400
1400
2200
2200
4100
7F00
4100
8080
8080
ENDCHAR
STARTCHAR Aring
ENCODING 129
SWIDTH 642 0
DWIDTH 9 0
BBX 9 14 0 0
BITMAP
0C00
1200
0C00
0800
0800
1400
1400
2200
2200
4100
7F00
4100
8080
8080
ENDCHAR
STARTCHAR Ccedilla
ENCODING 130
SWIDTH 714 0
DWIDTH 10 0
BBX 8 14 1 -3
BITMAP
1F
20
40
80
80
80
80
80
40
20
1F
04
02
0C
ENDCHAR
STARTCHAR Eacute
ENCODING 131
SWIDTH 571 0
DWIDTH 8 0
BBX 6 14 1 0
BITMAP
18
20
00
FC
80
80
80
80
F8
80
80
80
80
FC
ENDCHAR
STARTCHAR Ntilde
ENCODING 132
SWIDTH 714 0
DWIDTH 10 0
BBX 8 14 1 0
BITMAP
32
4C
00
C1
C1
A1
A1
91
99
89
85
85
83
83
ENDCHAR
STARTCHAR Odieresis
ENCODING 133
SWIDTH 857 0
DWIDTH 12 0
BBX 10 13 1 0
BITMAP
1200
0000
1E00
2100
4080
8040
8040
8040
8040
8040
4080
2100
1E00
ENDCHAR
STARTCHAR Udieresis
ENCODING 134
SWIDTH 714 0
DWIDTH 10 0
BBX 8 13 1 0
BITMAP
24
00
81
81
81
81
81
81
81
81
81
42
3C
ENDCHAR
STARTCHAR aacute
ENCODING 135
SWIDTH 571 0
DWIDTH 8 0
BBX 6 11 1 0
BITMAP
18
20
00
78
04
04
7C
84
84
8C
74
ENDCHAR
STARTCHAR agrave
ENCODING 136
SWIDTH 571 0
DWIDTH 8 0
BBX 6 11 1 0
BITMAP
60
10
00
78
04
04
7C
84
84
8C
74
ENDCHAR
STARTCHAR acircumflex
ENCODING 137
SWIDTH 571 0
DWIDTH 8 0
BBX 6 11 1 0
BITMAP
30
48
00
78
04
04
7C
84
84
8C
74
ENDCHAR
STARTCHAR adieresis
ENCODING 138
SWIDTH 571 0
DWIDTH 8 0
BBX 6 10 1 0
BITMAP
48
00
78
04
04
7C
84
84
8C
74
ENDCHAR
STARTCHAR atilde
ENCODING 139
SWIDTH 571 0
DWIDTH 8 0
BBX 6 11 1 0
BITMAP
64
98
00
78
04
04
7C
84
84
8C
74
ENDCHAR
STARTCHAR aring
ENCODING 140
SWIDTH 571 0
DWIDTH 8 0
BBX 6 12 1 0
BITMAP
30
48
30
00
78
04
04
7C
84
84
8C
74
ENDCHAR
STARTCHAR ccedilla
ENCODING 141
SWIDTH 571 0
DWIDTH 8 0
BBX 6 11 1 -3
BITMAP
3C
40
80
80
80
80
40
3C
10
08
30
ENDCHAR
STARTCHAR eacute
ENCODING 142
SWIDTH 642 0
DWIDTH 9 0
BBX 7 11 1 0
BITMAP
0C
10
00
3C
42
82
FE
80
80
40
3E
ENDCHAR
STARTCHAR egrave
ENCODING 143
SWIDTH 642 0
DWIDTH 9 0
BBX 7 11 1 0
BITMAP
30
08
00
3C
42
82
FE
80
80
40
3E
ENDCHAR
STARTCHAR ecircumflex
ENCODING 144
SWIDTH 642 0
DWIDTH 9 0
BBX 7 11 1 0
BITMAP
18
24
00
3C
42
82
FE
80
80
40
3E
ENDCHAR
STARTCHAR edieresis
ENCODING 145
SWIDTH 642 0
DWIDTH 9 0
BBX 7 10 1 0
BITMAP
24
00
3C
42
82
FE
80
80
40
3E
ENDCHAR
STARTCHAR iacute
ENCODING 146
SWIDTH 214 0
DWIDTH 3 0
BBX 3 11 0 0
BITMAP
60
80
00
40
40
40
40
40
40
40
40
ENDCHAR
STARTCHAR igrave
ENCODING 147
SWIDTH 214 0
DWIDTH 3 0
BBX 3 11 0 0
BITMAP
C0
20
00
40
40
40
40
40
40
40
40
ENDCHAR
STARTCHAR icircumflex
ENCODING 148
SWIDTH 214 0
DWIDTH 3 0
BBX 4 11 0 0
BITMAP
60
90
00
40
40
40
40
40
40
40
40
ENDCHAR
STARTCHAR idieresis
ENCODING 149
SWIDTH 214 0
DWIDTH 3 0
BBX 3 10 0 0
BITMAP
A0
00
40
40
40
40
40
40
40
40
ENDCHAR
STARTCHAR ntilde
ENCODING 150
SWIDTH 571 0
DWIDTH 8 0
BBX 6 11 1 0
BITMAP
64
98
00
B8
C4
84
84
84
84
84
84
ENDCHAR
STARTCHAR oacute
ENCODING 151
SWIDTH 642 0
DWIDTH 9 0
BBX 7 11 1 0
BITMAP
18
20
00
38
44
82
82
82
82
44
38
ENDCHAR
STARTCHAR ograve
ENCODING 152
SWIDTH 642 0
DWIDTH 9 0
BBX 7 11 1 0
BITMAP
30
08
00
38
44
82
82
82
82
44
38
ENDCHAR
STARTCHAR ocircumflex
ENCODING 153
SWIDTH 642 0
DWIDTH 9 0
BBX 7 11 1 0
BITMAP
18
24
00
38
44
82
82
82
82
44
38
ENDCHAR
STARTCHAR odieresis
ENCODING 154
SWIDTH 642 0
DWIDTH 9 0
BBX 7 10 1 0
BITMAP
24
00
38
44
82
82
82
82
44
38
ENDCHAR
STARTCHAR otilde
ENCODING 155
SWIDTH 642 0
DWIDTH 9 0
BBX 7 11 1 0
BITMAP
32
4C
00
38
44
82
82
82
82
44
38
ENDCHAR
STARTCHAR uacute
ENCODING 156
SWIDTH 571 0
DWIDTH 8 0
BBX 6 11 1 0
BITMAP
18
20
00
84
84
84
84
84
84
8C
74
ENDCHAR
STARTCHAR ugrave
ENCODING 157
SWIDTH 571 0
DWIDTH 8 0
BBX 6 11 1 0
BITMAP
60
10
00
84
84
84
84
84
84
8C
74
ENDCHAR
STARTCHAR ucircumflex
ENCODING 158
SWIDTH 571 0
DWIDTH 8 0
BBX 6 11 1 0
BITMAP
30
48
00
84
84
84
84
84
84
8C
74
ENDCHAR
STARTCHAR udieresis
ENCODING 159
SWIDTH 571 0
DWIDTH 8 0
BBX 6 10 1 0
BITMAP
48
00
84
84
84
84
84
84
8C
74
ENDCHAR
STARTCHAR dagger
ENCODING 160
SWIDTH 857 0
DWIDTH 12 0
BBX 10 10 1 0
BITMAP
6180
9240
9240
7F80
1200
1200
7F80
9240
9240
6180
ENDCHAR
STARTCHAR degree
ENCODING 161
SWIDTH 428 0
DWIDTH 6 0
BBX 4 4 1 7
BITMAP
60
90
90
60
ENDCHAR
STARTCHAR cent
ENCODING 162
SWIDTH 571 0
DWIDTH 8 0
BBX 6 10 1 -1
BITMAP
10
3C
50
90
90
90
90
50
3C
10
ENDCHAR
STARTCHAR sterling
ENCODING 163
SWIDTH 642 0
DWIDTH 9 0
BBX 7 11 1 0
BITMAP
3C
40
40
40
F8
40
40
40
40
40
FE
ENDCHAR
STARTCHAR section
ENCODING 164
SWIDTH 928 0
DWIDTH 13 0
BBX 11 11 1 0
BITMAP
0400
0E00
1F00
2E80
75C0
FBE0
75C0
2E80
1F00
0E00
0400
ENDCHAR
STARTCHAR bullet
ENCODING 165
SWIDTH 571 0
DWIDTH 8 0
BBX 5 5 1 3
BITMAP
70
F8
F8
F8
70
ENDCHAR
STARTCHAR paragraph
ENCODING 166
SWIDTH 642 0
DWIDTH 9 0
BBX 7 11 1 0
BITMAP
7E
F2
F2
F2
F2
72
12
12
12
12
12
ENDCHAR
STARTCHAR germandbls
ENCODING 167
SWIDTH 642 0
DWIDTH 9 0
BBX 8 11 1 0
BITMAP
78
84
84
84
88
9C
82
81
81
82
BC
ENDCHAR
STARTCHAR registered
ENCODING 168
SWIDTH 714 0
DWIDTH 10 0
BBX 8 8 1 0
BITMAP
3C
42
B9
A5
B9
A5
42
3C
ENDCHAR
STARTCHAR copyright
ENCODING 169
SWIDTH 714 0
DWIDTH 10 0
BBX 8 8 1 0
BITMAP
3C
42
99
A1
A1
99
42
3C
ENDCHAR
STARTCHAR trademark
ENCODING 170
SWIDTH 785 0
DWIDTH 11 0
BBX 9 4 1 8
BITMAP
E880
4D80
4A80
4A80
ENDCHAR
STARTCHAR acute
ENCODING 171
SWIDTH 357 0
DWIDTH 5 0
BBX 3 2 1 8
BITMAP
60
80
ENDCHAR
STARTCHAR dieresis
ENCODING 172
SWIDTH 428 0
DWIDTH 6 0
BBX 4 1 1 8
BITMAP
90
ENDCHAR
STARTCHAR notequal
ENCODING 173
SWIDTH 714 0
DWIDTH 10 0
BBX 8 8 1 0
BITMAP
02
04
FF
08
10
FF
20
40
ENDCHAR
STARTCHAR AE
ENCODING 174
SWIDTH 1000 0
DWIDTH 14 0
BBX 13 11 0 0
BITMAP
07F8
0500
0900
0900
1100
11F0
3F00
2100
4100
4100
81F8
ENDCHAR
STARTCHAR Oslash
ENCODING 175
SWIDTH 857 0
DWIDTH 12 0
BBX 10 11 1 0
BITMAP
1E40
2180
4180
8240
8440
8440
8840
9040
6080
6100
9E00
ENDCHAR
STARTCHAR infinity
ENCODING 176
SWIDTH 1000 0
DWIDTH 14 0
BBX 12 5 1 2
BITMAP
71E0
8B10
8610
8D10
78E0
ENDCHAR
STARTCHAR plusminus
ENCODING 177
SWIDTH 642 0
DWIDTH 9 0
BBX 7 7 1 1
BITMAP
10
10
FE
10
10
00
FE
ENDCHAR
STARTCHAR lessequal
ENCODING 178
SWIDTH 642 0
DWIDTH 9 0
BBX 7 7 1 1
BITMAP
06
38
C0
38
06
00
FE
ENDCHAR
STARTCHAR greaterequal
ENCODING 179
SWIDTH 642 0
DWIDTH 9 0
BBX 7 7 1 1
BITMAP
C0
38
06
38
C0
00
FE
ENDCHAR
STARTCHAR yen
ENCODING 180
SWIDTH 642 0
DWIDTH 9 0
BBX 9 11 0 0
BITMAP
8080
8080
4100
2200
2200
1400
7F00
0800
7F00
0800
0800
ENDCHAR
STARTCHAR mu
ENCODING 181
SWIDTH 571 0
DWIDTH 8 0
BBX 6 11 1 -3
BITMAP
84
84
84
84
84
84
8C
F4
80
80
80
ENDCHAR
STARTCHAR partialdiff
ENCODING 182
SWIDTH 642 0
DWIDTH 9 0
BBX 7 11 1 0
BITMAP
38
04
02
02
3A
46
82
82
82
44
38
ENDCHAR
STARTCHAR summation
ENCODING 183
SWIDTH 642 0
DWIDTH 9 0
BBX 7 12 1 -1
BITMAP
FE
82
40
20
10
08
08
10
20
40
82
FE
ENDCHAR
STARTCHAR product
ENCODING 184
SWIDTH 785 0
DWIDTH 11 0
BBX 9 12 1 -1
BITMAP
FF80
4100
4100
4100
4100
4100
4100
4100
4100
4100
4100
E380
ENDCHAR
STARTCHAR pi
ENCODING 185
SWIDTH 642 0
DWIDTH 9 0
BBX 7 7 1 0
BITMAP
FE
44
44
44
44
46
C4
ENDCHAR
STARTCHAR integral
ENCODING 186
SWIDTH 357 0
DWIDTH 5 0
BBX 3 16 1 -3
BITMAP
20
40
40
40
40
40
40
40
40
40
40
40
40
40
40
80
ENDCHAR
STARTCHAR ordfeminine
ENCODING 187
SWIDTH 500 0
DWIDTH 7 0
BBX 5 6 1 5
BITMAP
70
88
98
68
00
F8
ENDCHAR
STARTCHAR ordmasculine
ENCODING 188
SWIDTH 500 0
DWIDTH 7 0
BBX 5 6 1 5
BITMAP
70
88
88
70
00
F8
ENDCHAR
STARTCHAR Omega
ENCODING 189
SWIDTH 857 0
DWIDTH 12 0
BBX 10 11 1 0
BITMAP
1E00
2100
4080
8040
8040
8040
8040
4080
3300
9240
F3C0
ENDCHAR
STARTCHAR ae
ENCODING 190
SWIDTH 1000 0
DWIDTH 14 0
BBX 12 8 1 0
BITMAP
79C0
0620
0410
7FF0
8400
8400
8E00
75F0
ENDCHAR
STARTCHAR oslash
ENCODING 191
SWIDTH 642 0
DWIDTH 9 0
BBX 7 8 1 0
BITMAP
3A
44
8A
92
92
A2
44
B8
ENDCHAR
STARTCHAR questiondown
ENCODING 192
SWIDTH 500 0
DWIDTH 7 0
BBX 5 11 1 -3
BITMAP
10
10
00
10
10
20
40
80
80
80
78
ENDCHAR
STARTCHAR exclamdown
ENCODING 193
SWIDTH 214 0
DWIDTH 3 0
BBX 1 11 1 -3
BITMAP
80
80
00
80
80
80
80
80
80
80
80
ENDCHAR
STARTCHAR logicalnot
ENCODING 194
SWIDTH 714 0
DWIDTH 10 0
BBX 8 4 1 2
BITMAP
FF
01
01
01
ENDCHAR
STARTCHAR radical
ENCODING 195
SWIDTH 642 0
DWIDTH 9 0
BBX 7 12 1 -1
BITMAP
02
02
02
04
04
C4
48
28
28
30
10
10
ENDCHAR
STARTCHAR florin
ENCODING 196
SWIDTH 571 0
DWIDTH 8 0
BBX 8 13 0 -1
BITMAP
03
04
04
1E
08
08
08
10
10
10
20
20
C0
ENDCHAR
STARTCHAR approxequal
ENCODING 197
SWIDTH 714 0
DWIDTH 10 0
BBX 8 5 1 2
BITMAP
71
8E
00
71
8E
ENDCHAR
STARTCHAR Delta
ENCODING 198
SWIDTH 928 0
DWIDTH 13 0
BBX 11 12 1 0
BITMAP
0400
0400
0A00
0A00
1100
1100
2080
2080
4040
4040
8020
FFE0
ENDCHAR
STARTCHAR guillemotleft
ENCODING 199
SWIDTH 642 0
DWIDTH 9 0
BBX 7 7 1 1
BITMAP
12
24
48
90
48
24
12
ENDCHAR
STARTCHAR guillemotright
ENCODING 200
SWIDTH 642 0
DWIDTH 9 0
BBX 7 7 1 1
BITMAP
90
48
24
12
24
48
90
ENDCHAR
STARTCHAR ellipsis
ENCODING 201
SWIDTH 785 0
DWIDTH 11 0
BBX 9 2 1 0
BITMAP
8880
8880
ENDCHAR
STARTCHAR nbspace
ENCODING 202
SWIDTH 285 0
DWIDTH 4 0
BBX 0 0 -1 -3
BITMAP
ENDCHAR
STARTCHAR Agrave
ENCODING 203
SWIDTH 642 0
DWIDTH 9 0
BBX 9 14 0 0
BITMAP
1800
0400
0000
0800
0800
1400
1400
2200
2200
4100
7F00
4100
8080
8080
ENDCHAR
STARTCHAR Atilde
ENCODING 204
SWIDTH 642 0
DWIDTH 9 0
BBX 9 14 0 0
BITMAP
1900
2600
0000
0800
0800
1400
1400
2200
2200
4100
7F00
4100
8080
8080
ENDCHAR
STARTCHAR Otilde
ENCODING 205
SWIDTH 857 0
DWIDTH 12 0
BBX 10 14 1 0
BITMAP
1900
2600
0000
1E00
2100
4080
8040
8040
8040
8040
8040
4080
2100
1E00
ENDCHAR
STARTCHAR OE
ENCODING 206
SWIDTH 1000 0
DWIDTH 14 0
BBX 12 11 1 0
BITMAP
1FF0
2200
4200
8200
8200
83E0
8200
8200
4200
2200
1FF0
ENDCHAR
STARTCHAR oe
ENCODING 207
SWIDTH 1071 0
DWIDTH 15 0
BBX 13 8 1 0
BITMAP
38E0
4510
8208
83F8
8200
8200
4500
38F8
ENDCHAR
STARTCHAR endash
ENCODING 208
SWIDTH 714 0
DWIDTH 10 0
BBX 8 1 1 5
BITMAP
FF
ENDCHAR
STARTCHAR emdash
ENCODING 209
SWIDTH 1000 0
DWIDTH 14 0
BBX 12 1 1 5
BITMAP
FFF0
ENDCHAR
STARTCHAR quotedblleft
ENCODING 210
SWIDTH 500 0
DWIDTH 7 0
BBX 5 3 1 9
BITMAP
48
90
90
ENDCHAR
STARTCHAR quotedblright
ENCODING 211
SWIDTH 500 0
DWIDTH 7 0
BBX 5 3 1 9
BITMAP
48
48
90
ENDCHAR
STARTCHAR quoteleft
ENCODING 212
SWIDTH 285 0
DWIDTH 4 0
BBX 2 3 1 9
BITMAP
40
80
80
ENDCHAR
STARTCHAR quoteright
ENCODING 213
SWIDTH 285 0
DWIDTH 4 0
BBX 2 3 1 9
BITMAP
40
40
80
ENDCHAR
STARTCHAR divide
ENCODING 214
SWIDTH 642 0
DWIDTH 9 0
BBX 7 7 1 1
BITMAP
10
10
00
FE
00
10
10
ENDCHAR
STARTCHAR lozenge
ENCODING 215
SWIDTH 785 0
DWIDTH 11 0
BBX 9 13 1 -1
BITMAP
0800
0800
1400
2200
2200
4100
C180
4100
2200
2200
1400
0800
0800
ENDCHAR
STARTCHAR ydieresis
ENCODING 216
SWIDTH 571 0
DWIDTH 8 0
BBX 8 13 0 -3
BITMAP
12
00
41
41
22
22
14
14
08
08
10
20
C0
ENDCHAR
STARTCHAR Ydieresis
ENCODING 217
SWIDTH 714 0
DWIDTH 10 0
BBX 9 13 1 0
BITMAP
1200
0000
8080
8080
4100
2200
2200
1400
0800
0800
0800
0800
0800
ENDCHAR
STARTCHAR fraction
ENCODING 218
SWIDTH 428 0
DWIDTH 6 0
BBX 6 12 0 -1
BITMAP
04
04
08
08
10
10
20
20
40
40
80
80
ENDCHAR
STARTCHAR currency
ENCODING 219
SWIDTH 714 0
DWIDTH 10 0
BBX 8 8 1 0
BITMAP
BD
42
81
81
81
81
42
BD
ENDCHAR
STARTCHAR guilsinglleft
ENCODING 220
SWIDTH 428 0
DWIDTH 6 0
BBX 4 7 1 1
BITMAP
10
20
40
80
40
20
10
ENDCHAR
STARTCHAR guilsinglright
ENCODING 221
SWIDTH 428 0
DWIDTH 6 0
BBX 4 7 1 1
BITMAP
80
40
20
10
20
40
80
ENDCHAR
STARTCHAR fi
ENCODING 222
SWIDTH 571 0
DWIDTH 8 0
BBX 6 11 1 0
BITMAP
3C
40
40
FC
44
44
44
44
44
44
44
ENDCHAR
STARTCHAR fl
ENCODING 223
SWIDTH 571 0
DWIDTH 8 0
BBX 6 11 1 0
BITMAP
3C
44
44
F4
44
44
44
44
44
44
44
ENDCHAR
STARTCHAR daggerdbl
ENCODING 224
SWIDTH 857 0
DWIDTH 12 0
BBX 8 8 2 0
BITMAP
FF
FF
FF
FF
FF
FF
FF
FF
ENDCHAR
STARTCHAR periodcentered
ENCODING 225
SWIDTH 214 0
DWIDTH 3 0
BBX 1 2 1 4
BITMAP
80
80
ENDCHAR
STARTCHAR quotesinglbase
ENCODING 226
SWIDTH 214 0
DWIDTH 3 0
BBX 2 3 0 -1
BITMAP
40
40
80
ENDCHAR
STARTCHAR quotedblbase
ENCODING 227
SWIDTH 428 0
DWIDTH 6 0
BBX 5 3 0 -1
BITMAP
48
48
90
ENDCHAR
STARTCHAR perthousand
ENCODING 228
SWIDTH 1214 0
DWIDTH 17 0
BBX 15 11 1 0
BITMAP
6080
9080
9100
9200
6400
0400
098C
1252
2252
4252
418C
ENDCHAR
STARTCHAR Acircumflex
ENCODING 229
SWIDTH 642 0
DWIDTH 9 0
BBX 9 14 0 0
BITMAP
0C00
1200
0000
0800
0800
1400
1400
2200
2200
4100
7F00
4100
8080
8080
ENDCHAR
STARTCHAR Ecircumflex
ENCODING 230
SWIDTH 571 0
DWIDTH 8 0
BBX 6 14 1 0
BITMAP
30
48
00
FC
80
80
80
80
F8
80
80
80
80
FC
ENDCHAR
STARTCHAR Aacute
ENCODING 231
SWIDTH 642 0
DWIDTH 9 0
BBX 9 14 0 0
BITMAP
0C00
1000
0000
0800
0800
1400
1400
2200
2200
4100
7F00
4100
8080
8080
ENDCHAR
STARTCHAR Edieresis
ENCODING 232
SWIDTH 571 0
DWIDTH 8 0
BBX 6 13 1 0
BITMAP
48
00
FC
80
80
80
80
F8
80
80
80
80
FC
ENDCHAR
STARTCHAR Egrave
ENCODING 233
SWIDTH 571 0
DWIDTH 8 0
BBX 6 14 1 0
BITMAP
60
10
00
FC
80
80
80
80
F8
80
80
80
80
FC
ENDCHAR
STARTCHAR Iacute
ENCODING 234
SWIDTH 214 0
DWIDTH 3 0
BBX 3 14 0 0
BITMAP
60
80
00
40
40
40
40
40
40
40
40
40
40
40
ENDCHAR
STARTCHAR Icircumflex
ENCODING 235
SWIDTH 214 0
DWIDTH 3 0
BBX 4 14 0 0
BITMAP
60
90
00
40
40
40
40
40
40
40
40
40
40
40
ENDCHAR
STARTCHAR Idieresis
ENCODING 236
SWIDTH 214 0
DWIDTH 3 0
BBX 3 13 0 0
BITMAP
A0
00
40
40
40
40
40
40
40
40
40
40
40
ENDCHAR
STARTCHAR Igrave
ENCODING 237
SWIDTH 214 0
DWIDTH 3 0
BBX 3 14 0 0
BITMAP
C0
20
00
40
40
40
40
40
40
40
40
40
40
40
ENDCHAR
STARTCHAR Oacute
ENCODING 238
SWIDTH 857 0
DWIDTH 12 0
BBX 10 14 1 0
BITMAP
0600
0800
0000
1E00
2100
4080
8040
8040
8040
8040
8040
4080
2100
1E00
ENDCHAR
STARTCHAR Ocircumflex
ENCODING 239
SWIDTH 857 0
DWIDTH 12 0
BBX 10 14 1 0
BITMAP
0C00
1200
0000
1E00
2100
4080
8040
8040
8040
8040
8040
4080
2100
1E00
ENDCHAR
STARTCHAR apple
ENCODING 240
SWIDTH 785 0
DWIDTH 11 0
BBX 9 11 1 0
BITMAP
0400
0C00
0800
7700
FF80
FE00
FC00
FE00
FF80
7F00
3600
ENDCHAR
STARTCHAR Ograve
ENCODING 241
SWIDTH 857 0
DWIDTH 12 0
BBX 10 14 1 0
BITMAP
1800
0400
0000
1E00
2100
4080
8040
8040
8040
8040
8040
4080
2100
1E00
ENDCHAR
STARTCHAR Uacute
ENCODING 242
SWIDTH 714 0
DWIDTH 10 0
BBX 8 14 1 0
BITMAP
0C
10
00
81
81
81
81
81
81
81
81
81
42
3C
ENDCHAR
STARTCHAR Ucircumflex
ENCODING 243
SWIDTH 714 0
DWIDTH 10 0
BBX 8 14 1 0
BITMAP
18
24
00
81
81
81
81
81
81
81
81
81
42
3C
ENDCHAR
STARTCHAR Ugrave
ENCODING 244
SWIDTH 714 0
DWIDTH 10 0
BBX 8 14 1 0
BITMAP
30
08
00
81
81
81
81
81
81
81
81
81
42
3C
ENDCHAR
STARTCHAR dotlessi
ENCODING 245
SWIDTH 214 0
DWIDTH 3 0
BBX 1 8 1 0
BITMAP
80
80
80
80
80
80
80
80
ENDCHAR
STARTCHAR circumflex
ENCODING 246
SWIDTH 428 0
DWIDTH 6 0
BBX 4 2 1 9
BITMAP
60
90
ENDCHAR
STARTCHAR tilde
ENCODING 247
SWIDTH 571 0
DWIDTH 8 0
BBX 6 2 1 9
BITMAP
64
98
ENDCHAR
STARTCHAR macron
ENCODING 248
SWIDTH 428 0
DWIDTH 6 0
BBX 4 1 1 10
BITMAP
F0
ENDCHAR
STARTCHAR breve
ENCODING 249
SWIDTH 428 0
DWIDTH 6 0
BBX 4 2 1 9
BITMAP
90
60
ENDCHAR
STARTCHAR dotaccent
ENCODING 250
SWIDTH 214 0
DWIDTH 3 0
BBX 1 2 1 9
BITMAP
80
80
ENDCHAR
STARTCHAR ring
ENCODING 251
SWIDTH 428 0
DWIDTH 6 0
BBX 4 3 1 8
BITMAP
60
90
60
ENDCHAR
STARTCHAR cedilla
ENCODING 252
SWIDTH 357 0
DWIDTH 5 0
BBX 3 4 1 -3
BITMAP
40
40
20
C0
ENDCHAR
STARTCHAR hungarumlaut
ENCODING 253
SWIDTH 428 0
DWIDTH 6 0
BBX 4 2 1 10
BITMAP
50
A0
ENDCHAR
STARTCHAR ogonek
ENCODING 254
SWIDTH 357 0
DWIDTH 5 0
BBX 3 3 1 -3
BITMAP
40
80
60
ENDCHAR
STARTCHAR caron
ENCODING 255
SWIDTH 357 0
DWIDTH 5 0
BBX 3 2 1 9
BITMAP
A0
40
ENDCHAR
ENDFONT
